<?xml version="1.0" standalone="no"?>
<!DOCTYPE svg PUBLIC "-//W3C//DTD SVG 20010904//EN"
 "http://www.w3.org/TR/2001/REC-SVG-20010904/DTD/svg10.dtd">
<svg version="1.0" xmlns="http://www.w3.org/2000/svg"
 width="626.000000pt" height="626.000000pt" viewBox="0 0 626.000000 626.000000"
 preserveAspectRatio="xMidYMid meet">
<metadata>
Created by potrace 1.16, written by Peter Selinger 2001-2019
</metadata>
<g transform="translate(0.000000,626.000000) scale(0.100000,-0.100000)"
fill="#000000" stroke="none">
<path d="M2157 5380 c-58 -312 -54 -650 12 -907 39 -151 120 -358 147 -375 24
-15 130 -97 149 -115 11 -11 28 -22 38 -26 17 -6 17 -8 1 -32 -9 -14 -20 -25
-25 -25 -6 0 -13 -8 -16 -17 -4 -10 -16 -26 -26 -36 -11 -9 -17 -20 -13 -24 3
-4 -8 -12 -26 -17 -27 -9 -32 -16 -30 -36 2 -21 -2 -26 -23 -28 -23 -2 -30 7
-26 31 1 5 -3 6 -8 2 -12 -7 -145 129 -227 231 -71 89 -195 276 -241 365 -20
38 -38 68 -39 66 -6 -6 39 -143 78 -242 77 -194 192 -397 311 -548 61 -78 156
-177 169 -177 6 0 9 -2 6 -5 -3 -4 -34 3 -68 15 -34 12 -67 19 -73 17 -6 -2
10 -9 37 -16 45 -11 47 -13 30 -26 -11 -7 -15 -17 -11 -21 4 -5 12 -2 16 5 6
9 10 2 12 -20 5 -44 0 -81 -10 -74 -5 2 -6 -8 -4 -23 2 -15 5 -36 6 -47 2 -11
6 -26 11 -33 6 -10 0 -9 -23 2 -36 19 -41 30 -8 21 17 -5 19 -4 7 4 -8 6 -25
7 -39 4 -21 -5 -22 -3 -16 18 5 18 4 20 -4 9 -8 -12 -16 -11 -53 10 -40 22
-80 48 -117 77 -9 7 -45 33 -81 60 -67 49 -91 69 -169 138 l-46 40 30 -40
c189 -259 432 -480 688 -624 57 -32 62 -33 165 -32 58 1 104 0 102 -3 -3 -2
-39 -6 -80 -7 -41 -1 -86 -7 -101 -13 -26 -9 -28 -14 -31 -85 -3 -71 5 -97 24
-85 14 9 9 -9 -8 -27 -15 -17 -13 -18 23 -24 64 -11 70 -14 18 -10 -115 9
-380 69 -460 105 -11 5 -49 19 -85 31 -36 12 -83 30 -104 40 -22 10 -41 17
-43 16 -1 -2 32 -26 75 -54 242 -159 507 -271 761 -323 l101 -20 137 54 c76
30 192 75 258 100 66 26 140 56 165 66 25 11 50 21 56 22 6 2 39 -23 73 -54
34 -32 55 -58 46 -58 -8 0 -15 5 -15 10 0 6 -4 10 -10 10 -5 0 -10 -9 -10 -20
0 -11 -5 -20 -11 -20 -6 0 -9 -17 -7 -43 3 -38 5 -42 28 -39 42 4 -86 -57
-195 -93 -197 -66 -450 -101 -681 -93 -79 3 -144 4 -144 2 0 -1 49 -14 108
-28 156 -37 300 -56 440 -56 67 0 122 -3 122 -7 0 -3 -6 -14 -13 -22 -53 -61
-358 -581 -455 -771 -1 -3 17 -5 40 -3 24 1 33 -1 20 -4 -17 -3 -22 -9 -17
-20 3 -9 0 -20 -7 -25 -9 -5 -5 -8 12 -8 26 0 60 -44 60 -78 0 -14 2 -15 10
-2 5 8 11 12 15 9 10 -10 -178 -183 -250 -230 -133 -86 -309 -171 -425 -206
l-45 -13 59 5 c151 14 349 71 498 145 171 85 172 86 229 235 28 72 58 154 67
183 18 56 35 71 25 21 -5 -28 -4 -30 21 -23 14 3 37 3 51 0 20 -5 25 -13 25
-36 0 -40 16 -46 24 -8 3 17 9 29 12 26 8 -9 -24 -123 -53 -186 -56 -125 -168
-285 -275 -394 -36 -36 -49 -55 -32 -44 153 98 298 235 382 360 l51 77 -5 117
c-3 64 -6 131 -9 148 -3 31 -2 32 52 43 90 18 90 18 97 -42 13 -105 -33 -351
-89 -477 -29 -64 -10 -43 45 50 81 139 132 296 146 447 l7 73 40 11 c23 6 80
28 128 49 352 151 547 411 603 804 8 56 17 139 21 186 12 182 28 289 46 320
30 48 75 71 136 68 44 -3 50 -1 42 13 -12 24 -58 51 -71 43 -7 -4 -8 -3 -4 4
4 7 -7 18 -26 28 -25 14 -56 17 -133 17 -55 -1 -111 -6 -125 -12 -21 -9 -18
-9 20 -5 25 3 57 7 72 9 60 9 39 -58 -23 -75 -21 -6 -39 -14 -41 -19 -2 -5
-36 -25 -76 -45 -40 -20 -75 -43 -79 -51 -3 -8 -16 -15 -28 -15 -13 0 -30 -6
-37 -12 -8 -7 -28 -26 -45 -42 l-32 -29 -43 20 c-24 11 -54 24 -67 28 -54 16
-51 26 26 99 41 39 83 76 94 84 17 12 19 26 17 165 -1 109 -3 133 -7 85 -3
-36 -10 -70 -14 -74 -4 -5 -5 12 -1 36 7 41 6 44 -9 31 -14 -11 -17 -11 -17 0
0 11 -2 11 -10 -1 -29 -45 2 121 49 260 15 47 16 59 5 85 -7 17 -20 62 -28 99
-63 271 11 583 209 889 l67 102 -67 -65 c-178 -174 -313 -410 -360 -629 -12
-58 -12 -73 2 -121 8 -30 19 -63 24 -72 13 -25 11 -38 -5 -32 -7 3 -29 -4 -49
-16 -19 -11 -49 -25 -65 -29 -29 -9 -30 -8 -41 32 -24 96 -33 201 -29 344 3
81 8 157 12 168 6 16 5 17 -3 4 -15 -23 -49 -152 -67 -254 -21 -119 -20 -410
2 -446 7 -12 5 -12 -9 0 -9 7 -15 16 -13 20 2 3 -7 20 -21 36 -24 28 -25 28
-9 3 20 -34 20 -35 -1 -41 -13 -3 -14 -5 -3 -6 8 0 21 -10 28 -21 14 -23 -2
-25 -26 -2 -11 10 -17 10 -28 1 -8 -6 -12 -15 -9 -19 3 -4 -2 -13 -10 -20 -13
-11 -13 -16 1 -42 9 -16 14 -32 11 -34 -4 -4 -29 45 -65 126 -34 78 -78 218
-86 275 -3 17 -3 -20 -1 -81 9 -231 103 -531 178 -564 18 -8 26 -15 18 -18 -7
-2 -17 1 -21 8 -4 7 -12 10 -18 6 -6 -3 -13 -2 -17 4 -11 18 -35 11 -35 -11 0
-11 4 -17 10 -14 5 3 8 0 5 -7 -3 -7 6 -26 20 -42 14 -16 23 -31 20 -34 -6 -6
-55 49 -55 61 0 4 -16 23 -35 43 -19 19 -35 38 -35 43 0 13 -42 56 -52 53 -5
-1 -7 2 -3 7 5 9 -61 121 -72 121 -5 0 4 -15 29 -52 24 -35 23 -38 -17 -38
-21 0 -38 -6 -41 -13 -8 -23 -35 -15 -54 16 -25 40 -102 242 -137 355 l-28 94
-65 45 c-98 70 -269 246 -337 348 -200 299 -300 647 -321 1110 l-7 150 -18
-95z m276 -1937 c-7 -2 -19 -2 -25 0 -7 3 -2 5 12 5 14 0 19 -2 13 -5z m687
-134 c0 -5 -4 -9 -10 -9 -5 0 -10 7 -10 16 0 8 5 12 10 9 6 -3 10 -10 10 -16z
m697 -61 c-3 -8 -6 -5 -6 6 -1 11 2 17 5 13 3 -3 4 -12 1 -19z m-1450 -34 c-3
-3 -12 -4 -19 -1 -8 3 -5 6 6 6 11 1 17 -2 13 -5z m1120 -10 c-3 -3 -12 -4
-19 -1 -8 3 -5 6 6 6 11 1 17 -2 13 -5z m816 -121 c-7 -2 -19 -2 -25 0 -7 3
-2 5 12 5 14 0 19 -2 13 -5z m161 -51 c3 -5 -1 -9 -9 -9 -8 0 -12 4 -9 9 3 4
7 8 9 8 2 0 6 -4 9 -8z m-1616 -379 c-27 -2 -69 -2 -95 0 -27 2 -5 3 47 3 52
0 74 -1 48 -3z m807 -103 c3 -5 -1 -10 -10 -10 -9 0 -13 5 -10 10 3 6 8 10 10
10 2 0 7 -4 10 -10z m150 -69 c76 -32 103 -43 123 -47 27 -5 22 -13 -38 -63
-170 -142 -374 -251 -622 -332 -142 -46 -153 -62 127 191 88 79 196 177 239
218 43 40 84 71 90 68 6 -2 43 -18 81 -35z m-688 -997 c-3 -3 -12 -4 -19 -1
-8 3 -5 6 6 6 11 1 17 -2 13 -5z m-220 -40 c-3 -3 -12 -4 -19 -1 -8 3 -5 6 6
6 11 1 17 -2 13 -5z m-50 -10 c-3 -3 -12 -4 -19 -1 -8 3 -5 6 6 6 11 1 17 -2
13 -5z"/>
<path d="M2976 3787 c3 -10 9 -15 12 -12 3 3 0 11 -7 18 -10 9 -11 8 -5 -6z"/>
<path d="M3961 3764 c0 -11 3 -14 6 -6 3 7 2 16 -1 19 -3 4 -6 -2 -5 -13z"/>
<path d="M2996 3747 c3 -10 9 -15 12 -12 3 3 0 11 -7 18 -10 9 -11 8 -5 -6z"/>
<path d="M3016 3707 c3 -10 9 -15 12 -12 3 3 0 11 -7 18 -10 9 -11 8 -5 -6z"/>
<path d="M3941 3684 c0 -11 3 -14 6 -6 3 7 2 16 -1 19 -3 4 -6 -2 -5 -13z"/>
<path d="M3075 3590 c14 -27 28 -50 30 -50 3 0 -6 23 -20 50 -14 28 -28 50
-30 50 -3 0 6 -22 20 -50z"/>
<path d="M3921 3584 c0 -11 3 -14 6 -6 3 7 2 16 -1 19 -3 4 -6 -2 -5 -13z"/>
<path d="M3912 3540 c0 -14 2 -19 5 -12 2 6 2 18 0 25 -3 6 -5 1 -5 -13z"/>
<path d="M3125 3500 c9 -16 18 -30 21 -30 2 0 -2 14 -11 30 -9 17 -18 30 -21
30 -2 0 2 -13 11 -30z"/>
<path d="M3902 3475 c0 -16 2 -22 5 -12 2 9 2 23 0 30 -3 6 -5 -1 -5 -18z"/>
<path d="M3893 3405 c0 -22 2 -30 4 -17 2 12 2 30 0 40 -3 9 -5 -1 -4 -23z"/>
<path d="M3085 3370 c-3 -5 -1 -10 4 -10 6 0 11 5 11 10 0 6 -2 10 -4 10 -3 0
-8 -4 -11 -10z"/>
<path d="M4068 3083 c6 -2 18 -2 25 0 6 3 1 5 -13 5 -14 0 -19 -2 -12 -5z"/>
<path d="M3955 3040 c-3 -6 1 -7 9 -4 18 7 21 14 7 14 -6 0 -13 -4 -16 -10z"/>
<path d="M3915 3020 c-3 -6 1 -7 9 -4 18 7 21 14 7 14 -6 0 -13 -4 -16 -10z"/>
<path d="M3875 3000 c-3 -6 1 -7 9 -4 18 7 21 14 7 14 -6 0 -13 -4 -16 -10z"/>
<path d="M2503 2913 c9 -2 23 -2 30 0 6 3 -1 5 -18 5 -16 0 -22 -2 -12 -5z"/>
<path d="M2388 2903 c6 -2 18 -2 25 0 6 3 1 5 -13 5 -14 0 -19 -2 -12 -5z"/>
<path d="M2451 2716 c2 -2 22 -6 44 -10 29 -5 36 -4 25 3 -13 10 -79 16 -69 7z"/>
<path d="M2699 1393 c-13 -16 -12 -17 4 -4 16 13 21 21 13 21 -2 0 -10 -8 -17
-17z"/>
<path d="M2609 1313 l-24 -28 28 24 c25 23 32 31 24 31 -2 0 -14 -12 -28 -27z"/>
</g>
</svg>
